<svg width="122" height="106" viewBox="0 0 122 106" fill="none" xmlns="http://www.w3.org/2000/svg">
<path d="M121.199 56.4166C117.754 47.6186 114.4 38.7831 111.089 29.9319C110.822 29.2196 110.894 28.2011 111.189 27.4856C112.079 25.3298 113.178 23.2584 114.164 21.1433C115.644 17.969 117.801 14.979 116.882 11.1424C116.882 10.2582 116.796 9.36156 116.901 8.48989C117.075 7.03709 116.55 6.07168 115.378 5.20938C113.544 3.8628 111.877 2.28191 110.059 0.913468C109.454 0.457321 108.598 0.138643 107.844 0.110524C105.209 0.0136709 102.569 0.0199195 99.9341 0.101151C99.0994 0.126146 98.1996 0.372965 97.4642 0.769751C93.9175 2.68807 90.4298 4.72199 86.8831 6.6403C86.1477 7.03709 85.2416 7.30578 84.4131 7.30578C68.2312 7.34639 52.0493 7.34952 35.8674 7.31828C35.0824 7.31828 34.2291 7.09333 33.5247 6.73716C30.248 5.08128 26.965 3.43165 23.7845 1.60394C21.7831 0.457321 19.7693 -0.217527 17.4669 0.0636597C16.204 0.21675 14.8015 0.035541 13.6968 0.532304C11.3479 1.58832 9.12926 2.95051 6.91375 4.28146C6.40797 4.58452 5.89288 5.22812 5.78738 5.79049C5.36848 8.03686 5.04267 10.3051 4.82546 12.5827C4.75719 13.2982 4.98992 14.1292 5.31883 14.7885C7.23645 18.647 9.20683 22.4774 11.202 26.2984C11.7109 27.2732 11.8195 28.0855 11.3603 29.1915C7.61812 38.2019 3.95043 47.2437 0.316867 56.301C0.0127776 57.0571 -0.0710021 58.01 0.059322 58.8223C1.05227 64.9178 2.16313 70.9946 3.13435 77.0963C3.32673 78.3117 3.8201 79.0427 4.84097 79.652C11.4658 83.598 18.0596 87.5971 24.6751 91.5587C25.5563 92.0867 26.481 92.5709 27.4367 92.949C38.3467 97.2449 49.2567 101.541 60.1977 105.746C61.1006 106.093 62.3542 106.077 63.2696 105.743C69.9068 103.294 76.5068 100.735 83.1037 98.1759C86.278 96.945 89.6261 95.992 92.546 94.3049C101.101 89.3623 109.491 84.1322 117.903 78.9459C118.543 78.5522 119.126 77.6555 119.266 76.9057C120.175 72.0537 120.885 67.1642 121.81 62.3153C122.21 60.2282 121.965 58.3755 121.199 56.4166ZM97.7931 3.33167V16.4943L88.568 8.56174L97.7931 3.33167ZM107.608 2.55997C109.414 3.35042 110.956 4.73761 112.588 6.20603C113.209 6.76528 113.848 7.33702 114.502 7.8744L114.506 8.8523C114.512 10.3207 114.518 11.836 114.49 13.3263C114.431 13.3732 114.35 13.42 114.304 13.4325C110.5 14.4604 106.751 15.4539 102.786 16.5068L101.054 16.9661V2.41938C101.678 2.39438 102.302 2.34127 102.913 2.29128C104.666 2.13819 106.323 1.9976 107.608 2.55997ZM97.5883 88.1938C98.2864 86.7785 98.9846 85.3601 99.6921 83.9479C100.421 82.4888 101.154 81.036 101.889 79.5801C103.462 76.4558 105.091 73.2284 106.649 70.026C107.31 68.6638 108.132 67.8265 109.398 67.2235C111.977 65.9926 114.487 64.6866 117.143 63.3025C117.872 62.9245 118.608 62.5402 119.356 62.1528L118.986 64.3586C118.31 68.4264 117.671 72.2661 116.994 76.1309C116.932 76.4839 116.702 76.8589 116.535 76.962C110.568 80.6236 104.17 84.5103 97.5448 88.275L97.5883 88.1938ZM88.3104 93.1739L68.5043 101.078L68.8642 100.735C70.4778 99.1976 72.0913 97.6573 73.7048 96.1233C74.0741 95.7733 74.4402 95.4203 74.8095 95.0704C76.1034 93.8363 77.4377 92.5584 78.7968 91.3618C79.014 91.1713 79.4391 91.0244 79.7277 91.0244C79.7742 91.0244 79.8177 91.0275 79.858 91.0369C83.0199 91.7211 85.7536 92.4116 88.3104 93.1739ZM35.1693 92.9115C37.0248 92.4866 38.778 92.0867 40.4567 91.4743C42.4084 90.762 43.7272 91.1181 45.4928 92.8334C47.9938 95.261 50.6468 97.6042 53.2129 99.8724C53.6039 100.216 53.9949 100.563 54.3827 100.907L34.4618 93.074C34.7007 93.0208 34.9365 92.9646 35.1693 92.9115ZM19.279 19.8967L13.3865 25.208L8.74759 16.1725L19.279 19.8967ZM15.2948 27.6824L33.2858 11.4017L37.7354 46.5313L15.2948 27.6824ZM33.9684 56.5041L37.602 71.9068L19.9368 66.8517L33.9684 56.5041ZM14.7828 31.2879L37.2451 50.1867L17.7275 64.571L14.7828 31.2879ZM41.0121 47.8216L37.0155 16.4506L50.7306 42.4697L41.0121 47.8216ZM70.6888 42.8321L83.7181 16.1882L81.2016 47.8998L70.6888 42.8321ZM85.0927 72.0662L84.2394 53.336L103.046 66.4737L85.0927 72.0662ZM74.6637 78.2773L80.3948 76.6652L78.4958 84.3259L74.6637 78.2773ZM63.8654 86.9503C66.0312 85.3444 68.0326 83.6198 70.152 81.7952C70.8501 81.1954 71.5638 80.5799 72.2868 79.9675L77.3229 87.9251L62.2891 90.8495C61.9974 89.0873 62.4566 87.9938 63.8654 86.9503ZM49.75 79.6301C50.442 80.2643 51.1308 80.8892 51.8135 81.5109C54.3145 83.7823 56.6758 85.9256 58.9317 88.2438C59.2016 88.5219 59.2109 89.3404 59.2202 90.1371C59.2234 90.3683 59.2265 90.5995 59.2327 90.837L45.831 88.0876L49.75 79.6301ZM60.0301 44.7255V45.0691H60.6507C61.2061 45.0691 61.7647 45.0629 62.3232 45.0598C63.7971 45.0473 65.3207 45.0348 66.807 45.116C67.0924 45.1316 67.6013 45.5097 67.6789 45.719C68.9232 49.012 70.1799 52.5268 71.7531 57.1227C71.8617 57.4414 71.8369 57.9412 71.7003 58.2131C70.1892 61.2093 68.6532 64.118 67.139 66.8549C67.0211 67.0642 66.5991 67.3391 66.3819 67.3422C62.829 67.3954 59.1365 67.386 55.4067 67.3173C55.1244 67.311 54.6806 67.0767 54.4914 66.8361C52.7258 64.5554 51.2301 62.5152 49.9207 60.5938C49.6973 60.2688 49.5887 59.6377 49.6942 59.2753C50.4544 56.604 51.2643 53.8984 52.0462 51.2802C52.6358 49.3088 53.244 47.2718 53.8304 45.2628C53.9701 44.7848 54.0352 44.688 54.4107 44.688C54.4665 44.688 54.5255 44.6911 54.5937 44.6942C56.0397 44.763 57.5043 44.7473 58.9193 44.7348C59.2885 44.7317 59.6578 44.7286 60.0301 44.7255ZM79.7215 50.6429L74.3999 55.1981L71.3249 46.6157L79.7215 50.6429ZM75.7311 58.1943L81.155 53.5266L81.8594 68.2452L75.7311 58.1943ZM51.9438 69.398C50.774 71.4476 49.7035 73.2222 48.6795 74.8187C48.6144 74.9093 48.3568 75.0499 48.2358 75.0624C46.5354 74.5969 44.8567 74.0782 43.0756 73.5284C42.7498 73.4284 42.4209 73.3253 42.0888 73.2222L47.879 63.1744C48.0713 63.44 48.2637 63.7056 48.453 63.968C49.6942 65.6801 50.8702 67.2985 52.009 68.945C52.0338 69.0481 52.0028 69.2918 51.9438 69.398ZM51.9655 75.5873C52.9244 73.9689 53.8304 72.4411 54.7985 70.9196C54.873 70.8008 55.2547 70.6009 55.5277 70.5978C59.0341 70.5447 62.6769 70.5384 66.3539 70.5759C66.6642 70.579 67.0614 70.7477 67.1576 70.8758C68.2809 72.388 69.3514 73.9251 70.484 75.5529C70.7601 75.9466 71.0363 76.3465 71.3187 76.7495L60.7593 85.6194L51.2581 76.7776C51.497 76.3808 51.7328 75.9841 51.9655 75.5873ZM73.7545 74.8187C72.4792 73.0816 71.1977 71.2445 69.941 69.3543C69.8044 69.1512 69.7238 68.8232 69.7393 68.7044C70.8532 66.5174 72.0044 64.3679 73.2239 62.0934C73.4132 61.7404 73.6055 61.3842 73.7948 61.0249L81.2791 73.2128C80.9068 73.3159 80.5344 73.4221 80.1683 73.5252C78.1234 74.1001 76.1934 74.6406 74.2385 75.1342C74.1144 75.1155 73.8476 74.9499 73.7545 74.8187ZM50.2558 46.3251L47.0939 56.9883L42.1292 50.7554L50.2558 46.3251ZM37.0807 54.3452C37.3289 53.8078 38.1171 53.3017 39.5196 52.4644L45.8434 60.4469L40.376 69.9667L37.4592 57.8038C37.453 57.76 37.4468 57.7163 37.4375 57.6694C37.0372 55.898 36.8169 54.9201 37.0807 54.3452ZM47.066 78.0211L44.0561 84.5946L41.9492 76.4589L47.066 78.0211ZM54.7365 41.748L60.4242 15.2727L66.5618 41.748H54.7365ZM11.9716 34.2809L14.6711 65.2052C13.7899 64.8959 12.9211 64.5897 12.0584 64.2867C9.00824 63.2119 6.1256 62.1997 3.22744 61.1343C3.13435 61.0999 2.96679 60.9343 2.81164 60.575C2.35861 59.5471 2.32138 57.8381 2.72476 56.8477C5.0737 51.0772 7.42574 45.3066 9.78088 39.5391L11.1927 36.0774C11.4317 35.4869 11.6768 34.8871 11.9716 34.2809ZM5.38709 65.2302C8.6452 66.3862 11.7202 67.4766 14.8232 68.6138C15.1118 68.7201 15.4469 69.0137 15.5865 69.2856C18.9811 75.8466 22.3975 82.5326 25.7052 88.9967L25.9411 89.456L23.4742 87.9657C17.923 84.6102 12.1826 81.1423 6.56001 77.6899C6.09457 77.4056 5.66015 76.8745 5.58879 76.5058C4.98371 73.319 4.45 70.1479 3.88837 66.7893C3.76425 66.0519 3.64013 65.3115 3.51291 64.5616L5.38709 65.2302ZM19.7724 70.0666C21.6311 70.5978 23.4866 71.1351 25.3422 71.6694C29.314 72.816 33.4254 74.0033 37.4747 75.1342C38.2784 75.3592 38.5639 75.6373 38.7439 76.3715C39.4606 79.3052 40.2178 82.1858 41.0183 85.232C41.2635 86.1599 41.5086 87.0972 41.7568 88.047L30.158 90.9182L19.4683 69.9885C19.5738 70.0135 19.6731 70.0385 19.7724 70.0666ZM48.8936 91.8492C49.3777 91.9492 49.8648 92.0523 50.3489 92.1523C53.0143 92.7084 55.7698 93.2864 58.5004 93.7613C59.9805 94.0175 61.5195 94.0269 62.95 93.7863C64.2005 93.577 65.4696 93.3458 66.6953 93.1239C68.9697 92.7115 71.3032 92.2897 73.68 91.9586L61.6933 103.347L48.8936 91.8492ZM80.6772 88.072L81.1985 86.0037C82.0673 82.5607 82.8865 79.3083 83.7615 75.9997C83.7987 75.8841 84.0718 75.6279 84.2983 75.556C89.8061 73.8127 95.2766 72.113 101.07 70.3103L103.509 69.5511L92.7911 90.9369L80.6772 88.072ZM107.235 28.5635L84.3542 46.8437L87.1655 11.4298L107.235 28.5635ZM107.819 31.9752L105.206 64.243L85.1392 50.1867L107.819 31.9752ZM108.228 64.4085L110.565 35.3651L119.458 58.6755L108.228 64.4085ZM113.603 16.7755L109.094 26.1859L101.805 19.9248L113.603 16.7755ZM83.3333 9.98955L69.1063 38.9487L62.3294 9.98955H83.3333ZM58.4383 9.94893L52.2324 38.6393L37.0527 9.94893H58.4383ZM20.6536 14.8759V17.1067L18.5778 16.3725C14.8139 15.0447 11.2548 13.7887 7.68638 12.4734C7.56227 12.3671 7.3885 11.9797 7.40091 11.8204C7.52193 10.202 7.73913 8.56174 8.04633 6.94648C8.10218 6.65592 8.39696 6.25289 8.68243 6.08105C9.1696 5.78737 9.65676 5.47807 10.1315 5.17813C11.5837 4.25334 13.0855 3.30043 14.6556 2.80679C15.9558 2.39751 17.4948 2.47874 18.9842 2.55997C19.4124 2.58184 19.8562 2.60684 20.2906 2.61933C20.4116 2.71931 20.5978 2.98488 20.6164 3.08173C20.6567 6.97148 20.6567 10.8112 20.6536 14.8759ZM31.7622 8.62423L23.8559 15.7695V4.46267L31.7622 8.62423Z" fill="#F0F0F3"/>
</svg>
